External Loads File
version=1
nRows=54
nColumns=13
Range=5.000000e-03-10 seconds
endheader
time 	forceRightX 	forceRightY 	forceRightZ 	pointRightX 	pointRightY 	pointRightZ 	forceLeftX 	forceLeftY 	forceLeftZ 	pointLeftX 	pointLeftY 	pointLeftZ 		
7.505000 -13.992831 14.884860 -0.000000 -0.144674 0.345389 0.140234 -512.470979 307.226791 -0.000000 0.188157 0.144758 -0.364141
7.510000 -14.910980 13.207713 -0.000000 -0.148796 0.352873 0.140190 -502.445197 306.321475 -0.000000 0.184476 0.144765 -0.364136
7.515000 -16.119460 11.367528 -0.000000 -0.152629 0.359880 0.140120 -494.223178 305.168402 -0.000000 0.180625 0.144788 -0.364279
7.520000 -17.573457 9.479384 -0.000000 -0.155931 0.367539 0.140607 -487.112204 305.551581 -0.000000 0.176594 0.144830 -0.364240
7.525000 -19.251642 7.584405 -0.000000 -0.159148 0.374875 0.140746 -481.956393 306.284564 -0.000000 0.172615 0.144888 -0.364289
7.530000 -21.054848 5.773275 -0.000000 -0.162677 0.381899 0.140789 -478.589990 307.349713 -0.000000 0.168596 0.144959 -0.364223
7.535000 -22.851714 4.198056 -0.000000 -0.165589 0.389565 0.140937 -475.795796 309.977605 -0.000000 0.164992 0.145041 -0.364118
7.540000 -24.536870 2.887903 -0.000000 -0.168381 0.397330 0.141134 -473.661411 313.157887 -0.000000 0.161821 0.145127 -0.364048
7.545000 -26.006445 1.844362 -0.000000 -0.171056 0.404874 0.141290 -471.939825 316.391411 -0.000000 0.159162 0.145212 -0.364025
7.550000 -27.189125 1.069654 -0.000000 -0.173714 0.412411 0.141362 -470.109965 319.676995 -0.000000 0.156964 0.145291 -0.363957
7.555000 -28.054643 0.564232 -0.000000 -0.176295 0.420098 0.141396 -467.793665 322.944551 -0.000000 0.155374 0.145357 -0.363953
7.560000 -28.596417 0.316893 -0.000000 -0.178780 0.427593 0.141453 -464.920810 325.864698 -0.000000 0.154319 0.145407 -0.363795
7.565000 -28.817823 0.385656 -0.000000 -0.181244 0.436264 0.141497 -460.716908 329.324606 -0.000000 0.153983 0.145436 -0.363850
7.570000 -28.729141 0.639298 -0.000000 -0.183507 0.443420 0.141477 -456.582013 331.400483 -0.000000 0.154258 0.145444 -0.363827
7.575000 -28.343424 1.142562 -0.000000 -0.185788 0.450864 0.141402 -451.735247 333.493627 -0.000000 0.155210 0.145430 -0.363836
7.580000 -27.682117 1.889288 -0.000000 -0.187926 0.458412 0.140993 -446.361132 335.817401 -0.000000 0.156713 0.145395 -0.363848
7.585000 -26.762669 2.864964 -0.000000 -0.189887 0.465866 0.141001 -440.844354 338.405614 -0.000000 0.158814 0.145343 -0.363859
7.590000 -25.586005 4.055504 -0.000000 -0.191934 0.473255 0.140867 -435.473970 341.404910 -0.000000 0.161336 0.145277 -0.363962
7.595000 -24.149738 5.458280 -0.000000 -0.193699 0.480755 0.140717 -430.239170 345.226090 -0.000000 0.164317 0.145201 -0.363980
7.600000 -22.481110 7.033394 -0.000000 -0.195454 0.488052 0.140409 -425.541900 349.581758 -0.000000 0.167637 0.145121 -0.364030
7.605000 -20.637961 8.747987 -0.000000 -0.197760 0.495234 0.139918 -421.609372 354.217090 -0.000000 0.171160 0.145039 -0.364151
7.610000 -18.685557 10.601594 -0.000000 -0.199270 0.502537 0.139645 -417.750879 359.738166 -0.000000 0.175090 0.144958 -0.364119
7.615000 -16.744238 12.486794 -0.000000 -0.201269 0.509453 0.138995 -414.439051 365.156318 -0.000000 0.178918 0.144880 -0.364132
7.620000 -14.886964 14.339543 -0.000000 -0.202674 0.516827 0.138446 -410.563058 371.162041 -0.000000 0.182743 0.144803 -0.364153
7.625000 -13.208853 16.030931 -0.000000 -0.204020 0.523852 0.138034 -406.510909 376.674347 -0.000000 0.186485 0.144724 -0.364121
7.630000 -11.758423 17.507789 -0.000000 -0.205999 0.530850 0.137282 -402.162477 381.248849 -0.000000 0.190006 0.144638 -0.364114
7.635000 -10.522513 18.777320 -0.000000 -0.207374 0.537797 0.136612 -396.738116 385.214460 -0.000000 0.193184 0.144539 -0.364060
7.640000 -9.494737 19.828534 -0.000000 -0.208634 0.544843 0.135965 -390.292880 388.099031 -0.000000 0.196006 0.144417 -0.364022
7.645000 -8.648605 20.654337 -0.000000 -0.209492 0.551586 0.135003 -382.777856 389.662274 -0.000000 0.198324 0.144264 -0.363973
7.650000 -7.998826 21.240363 -0.000000 -0.210643 0.557441 0.134154 -374.873641 389.130060 -0.000000 0.200231 0.144070 -0.364102
7.655000 -7.451593 21.621980 -0.000000 -0.211793 0.565039 0.133072 -365.236710 387.948119 -0.000000 0.201501 0.143825 -0.364102
7.660000 -7.058278 21.771978 -0.000000 -0.212857 0.571679 0.132148 -355.403713 385.088089 -0.000000 0.202156 0.143524 -0.364097
7.665000 -6.786437 21.686233 -0.000000 -0.214537 0.578355 0.131110 -345.624261 380.995599 -0.000000 0.202236 0.143162 -0.364106
7.670000 -6.568819 21.380085 -0.000000 -0.215278 0.585284 0.130167 -335.502732 376.756151 -0.000000 0.201715 0.142738 -0.364134
7.675000 -6.448801 20.868929 -0.000000 -0.215966 0.591990 0.129022 -326.053727 372.169109 -0.000000 0.200639 0.142256 -0.364158
7.680000 -6.476079 20.211264 -0.000000 -0.216916 0.598638 0.128241 -317.668667 367.579131 -0.000000 0.198972 0.141724 -0.364164
7.685000 -6.709278 19.489396 -0.000000 -0.217716 0.605287 0.127050 -310.476481 363.497425 -0.000000 0.196838 0.141156 -0.364188
7.690000 -7.207221 18.774615 -0.000000 -0.218300 0.611864 0.125941 -304.686833 360.241743 -0.000000 0.194260 0.140571 -0.364246
7.695000 -8.010841 18.105410 -0.000000 -0.218942 0.618424 0.124854 -300.471821 357.963450 -0.000000 0.191254 0.139992 -0.364340
7.700000 -9.133787 17.486469 -0.000000 -0.219554 0.624923 0.123698 -297.755951 356.795474 -0.000000 0.187852 0.139443 -0.364196
7.705000 -10.574623 16.889124 -0.000000 -0.220335 0.631398 0.122132 -296.539533 356.631515 -0.000000 0.184263 0.138954 -0.364177
7.710000 -12.283988 16.282861 -0.000000 -0.220745 0.637660 0.121009 -296.435841 357.582706 -0.000000 0.180475 0.138548 -0.364127
7.715000 -14.186843 15.642877 -0.000000 -0.221245 0.644179 0.119931 -297.262333 359.535770 -0.000000 0.176589 0.138251 -0.364123
7.720000 -16.181125 14.955937 -0.000000 -0.221701 0.650383 0.118529 -298.971390 362.244257 -0.000000 0.172755 0.138080 -0.364076
7.725000 -18.138857 14.230954 -0.000000 -0.222133 0.656418 0.117720 -301.226545 365.669752 -0.000000 0.168863 0.138047 -0.364181
7.730000 -19.953693 13.479530 -0.000000 -0.222474 0.662494 0.116598 -303.791748 369.614184 -0.000000 0.165242 0.138158 -0.364123
7.735000 -21.558740 12.718500 -0.000000 -0.222734 0.668532 0.115424 -306.489730 373.734183 -0.000000 0.162084 0.138407 -0.363873
7.740000 -22.915672 11.989588 -0.000000 -0.222973 0.674604 0.114245 -308.952701 377.782800 -0.000000 0.159256 0.138782 -0.363729
7.745000 -24.007568 11.337148 -0.000000 -0.223089 0.680421 0.112975 -310.919574 381.409492 -0.000000 0.156766 0.139265 -0.363676
7.750000 -24.818287 10.800740 -0.000000 -0.222997 0.686113 0.112132 -312.073083 384.321987 -0.000000 0.154752 0.139830 -0.363597
7.755000 -25.344679 10.390859 -0.000000 -0.223052 0.691559 0.110835 -312.385723 386.064941 -0.000000 0.153275 0.140448 -0.363613
7.760000 -25.598920 10.119491 -0.000000 -0.222988 0.695924 0.109466 -311.854508 386.320818 -0.000000 0.152399 0.141091 -0.363531
7.765000 -25.565625 10.108188 -0.000000 -0.222865 0.703765 0.108027 -308.935283 386.199153 -0.000000 0.152090 0.141728 -0.363529
7.770000 -25.319949 10.224588 -0.000000 -0.223019 0.708894 0.106893 -305.790395 383.988020 -0.000000 0.152347 0.142334 -0.363563
